# xmcd
#
# Track frame offsets:
#	150
#	18127
#	34172
#	44537
#	57820
#	70085
#	87505
#	100327
#	112915
#	130387
#	142057
#	153017
#	172927
#	188629
#	199984
#	213187
#	226559
#	236981
#	248819
#
# Disc length: 3530 seconds
#
# Revision: 2
# Processed by: cddbd v1.5PL3 Copyright (c) Steve Scherf et al.
# Submitted via: EasyCDDAExtractor 5.1.0
#
DISCID=fc0dc813
DTITLE=John Lee Hooker - Giant of Blues Disc 2
DYEAR=2002
DGENRE=Blues
TTITLE0=Wednesday Evening Blues
TTITLE1=Dirty Ground Hog
TTITLE2=Want Ad Blues
TTITLE3=I'm Going Upstairs
TTITLE4=I'm Mad Again
TTITLE5=Process
TTITLE6=Drug Store Woman
TTITLE7=I've Got A Letter
TTITLE8=Blues Before Sunrise
TTITLE9=Boom, Boom
TTITLE10=Send My Your Pillow
TTITLE11=Half A Stranger
TTITLE12=One Way Ticket
TTITLE13=This Is Hip
TTITLE14=Birmingham Blues
TTITLE15=Don't Look Back
TTITLE16=Big Legs, Tight Shirt
TTITLE17=Your Baby Ain't Sweet Like Mine
TTITLE18=It Serves Me Right To Suffer
EXTD=
EXTT0=
EXTT1=
EXTT2=
EXTT3=
EXTT4=
EXTT5=
EXTT6=
EXTT7=
EXTT8=
EXTT9=
EXTT10=
EXTT11=
EXTT12=
EXTT13=
EXTT14=
EXTT15=
EXTT16=
EXTT17=
EXTT18=
PLAYORDER=
